<svg version="1.1" xmlns="http://www.w3.org/2000/svg" viewBox="0 0 1936.5146865844727 404.3779297278679" width="1936.5146865844727" height="404.3779297278679">
  <!-- svg-source:excalidraw -->
  
  <defs>
    <style class="style-fonts">
      @font-face {
        font-family: "Virgil";
        src: url("https://excalidraw.com/Virgil.woff2");
      }
      @font-face {
        font-family: "Cascadia";
        src: url("https://excalidraw.com/Cascadia.woff2");
      }
      @font-face {
        font-family: "Assistant";
        src: url("https://excalidraw.com/Assistant-Regular.woff2");
      }
    </style>
    
  </defs>
  <rect x="0" y="0" width="1936.5146865844727" height="404.3779297278679" fill="#ffffff"></rect><g stroke-linecap="round"><g transform="translate(83.36553238218767 83.99624337208843) rotate(0 -23.486786892368627 20.84739991556171)"><path d="M0.61 -0.92 C-7.26 0.95, -47.41 4.92, -47.65 11.94 C-47.88 18.97, -8.61 36.29, -0.79 41.21 M-0.53 1.21 C-7.98 2.7, -45.14 3.45, -45.29 10.3 C-45.44 17.14, -8.92 36.91, -1.42 42.28" stroke="#1864ab" stroke-width="4" fill="none"></path></g></g><mask></mask><g stroke-linecap="round" transform="translate(58.57749997578321 13) rotate(0 36.928698181765185 28.347195808091783)"><path d="M3.56 16.34 C3.56 16.34, 3.56 16.34, 3.56 16.34 M3.56 16.34 C3.56 16.34, 3.56 16.34, 3.56 16.34 M4.48 39.67 C12.01 30.44, 19.82 20.25, 39.25 -0.33 M4.48 39.67 C14.42 26.89, 26 13.42, 39.25 -0.33 M16.56 50.17 C29.03 35.06, 43.38 19.25, 55.26 5.64 M16.56 50.17 C30.69 32.57, 47.26 15.67, 55.26 5.64 M31.91 56.89 C40.93 43.99, 51.12 36.37, 68 15.38 M31.91 56.89 C45.96 39.9, 59.95 24.51, 68 15.38 M60.39 48.52 C63.68 45.66, 69.33 40.87, 71.54 35.69 M60.39 48.52 C64.21 43.95, 69.02 39.45, 71.54 35.69" stroke="#ced4da" stroke-width="2" fill="none"></path><path d="M40.8 -0.68 C47.89 -0.41, 57.07 4.26, 62.58 8.09 C68.08 11.92, 72.43 16.98, 73.83 22.3 C75.23 27.63, 73.97 35.07, 70.97 40.04 C67.97 45.01, 62.17 49.29, 55.83 52.1 C49.48 54.91, 40.08 57.46, 32.9 56.91 C25.72 56.35, 18.17 52.45, 12.75 48.77 C7.32 45.08, 1.86 40.22, 0.35 34.79 C-1.16 29.36, 0.79 21.24, 3.7 16.18 C6.61 11.12, 10.73 6.81, 17.79 4.42 C24.84 2.04, 40.58 1.97, 46.02 1.87 C51.46 1.78, 50.51 3.51, 50.42 3.85 M31.65 -0.13 C38.29 -1.1, 47.89 1.69, 54.31 4.19 C60.72 6.69, 67.11 10.17, 70.14 14.86 C73.17 19.56, 73.57 27, 72.5 32.35 C71.43 37.69, 68.43 43.04, 63.71 46.93 C58.99 50.82, 51.38 54.81, 44.18 55.71 C36.98 56.6, 27.36 54.5, 20.51 52.29 C13.67 50.08, 6.46 46.97, 3.12 42.46 C-0.22 37.94, -0.88 30.88, 0.48 25.2 C1.85 19.53, 6.3 12.65, 11.32 8.41 C16.34 4.18, 27.13 0.85, 30.6 -0.23 C34.06 -1.3, 32.05 1.47, 32.1 1.97" stroke="#1864ab" stroke-width="4" fill="none"></path></g><g stroke-linecap="round"><g transform="translate(91.77191154236607 51.49632684844619) rotate(0 12.868302412555977 -4.151193345730462)"><path d="M0.12 -0.22 C2.81 -0.24, 11.62 1.61, 15.81 0.28 C20.01 -1.06, 23.55 -6.8, 25.27 -8.22 M-0.48 -0.81 C2.17 -0.78, 10.99 2.31, 15.47 0.93 C19.94 -0.45, 24.52 -7.37, 26.35 -9.06" stroke="#1864ab" stroke-width="4" fill="none"></path></g></g><mask></mask><g stroke-linecap="round"><g transform="translate(99.780010094516 81.7593996989126) rotate(0 14.343020779093422 -7.386439597199569)"><path d="M0.35 -0.2 C4.92 2.15, 25.42 17.99, 27.67 13.6 C29.92 9.22, 16.37 -19.75, 13.87 -26.51 M-0.92 -1.34 C3.98 0.72, 27.44 16.5, 29.85 11.99 C32.26 7.48, 16.41 -22.12, 13.55 -28.38" stroke="#1864ab" stroke-width="4" fill="none"></path></g></g><mask></mask><g stroke-linecap="round"><g transform="translate(93.81510728528065 91.6014818252388) rotate(0 -0.8947347387568243 63.07880249550408)"><path d="M-1.02 0.97 C-1.23 10.27, -0.89 34.68, -0.92 55.62 C-0.96 76.56, -1.25 114.74, -1.23 126.61 M0.65 0.44 C0.33 9.43, -0.95 33.29, -1.42 53.97 C-1.89 74.65, -2.32 112.72, -2.17 124.51" stroke="#1864ab" stroke-width="4" fill="none"></path></g></g><mask></mask><g stroke-linecap="round"><g transform="translate(82.63092305081955 228.1976599061236) rotate(0 -18.491182325547925 -0.14912359417348853)"><path d="M0.4 0.41 C-5.71 0.32, -30.91 -0.03, -37.14 -0.09 M-0.06 0.14 C-6.22 -0.15, -31.44 -0.78, -37.65 -0.95" stroke="#1864ab" stroke-width="4" fill="none"></path></g></g><mask></mask><g stroke-linecap="round"><g transform="translate(98.58703499369585 227.75029253674438) rotate(0 19.236796883273428 -0.22368368468914923)"><path d="M-0.15 0.21 C6.2 0.12, 32.14 -0.02, 38.5 -0.13 M0.77 -0.16 C7.01 -0.44, 31.69 -0.98, 38.08 -0.93" stroke="#1864ab" stroke-width="4" fill="none"></path></g></g><mask></mask><g stroke-linecap="round"><g transform="translate(105.95449299368647 29.74427268348245) rotate(0 3.232180172463586 -1.392169991686842)" fill-rule="evenodd"><path d="M0 0 C0 0, 0 0, 0 0 M0 0 C0 0, 0 0, 0 0" stroke="#ced4da" stroke-width="2" fill="none"></path><path d="M0.01 0.21 C0.67 -0.31, 2.73 -3.01, 3.83 -2.97 C4.93 -2.94, 6.19 -0.08, 6.6 0.42 M-0.41 0.01 C0.36 -0.46, 3.33 -2.49, 4.47 -2.52 C5.61 -2.54, 6.15 -0.61, 6.44 -0.15" stroke="#1864ab" stroke-width="4" fill="none"></path></g></g><mask></mask><g stroke-linecap="round"><g transform="translate(93.72815451263978 30.981097771818895) rotate(0 3.232180172463586 -1.392169991686842)" fill-rule="evenodd"><path d="M0 0 C0 0, 0 0, 0 0 M0 0 C0 0, 0 0, 0 0" stroke="#ced4da" stroke-width="2" fill="none"></path><path d="M-0.31 0 C0.4 -0.49, 3.18 -2.74, 4.27 -2.74 C5.37 -2.73, 5.86 -0.48, 6.27 0.04 M0.18 -0.3 C0.86 -0.91, 3.1 -3.35, 4.06 -3.24 C5.02 -3.13, 5.47 -0.14, 5.94 0.35" stroke="#1864ab" stroke-width="4" fill="none"></path></g></g><mask></mask><g stroke-linecap="round"><g transform="translate(220.69519257056072 82.7655315448219) rotate(0 -23.486786892368627 20.84739991556171)"><path d="M0.73 0.68 C-7.24 2.5, -46.72 3.98, -47.11 10.99 C-47.49 18, -9.37 37.68, -1.56 42.75 M-0.35 0 C-8.56 2.01, -47.75 5.68, -48.12 12.5 C-48.5 19.33, -10.69 35.99, -2.6 40.97" stroke="#1864ab" stroke-width="4" fill="none"></path></g></g><mask></mask><g stroke-linecap="round" transform="translate(195.90716016415627 11.769288172732558) rotate(0 36.92869818176496 28.347195808091783)"><path d="M10.3 10.28 C10.3 10.28, 10.3 10.28, 10.3 10.28 M10.3 10.28 C10.3 10.28, 10.3 10.28, 10.3 10.28 M4.01 41.91 C13.59 28.83, 27.81 15.22, 38.78 1.91 M4.01 41.91 C12.23 31.88, 20.62 23.09, 38.78 1.91 M17.4 50.9 C29.35 39.17, 42.68 25.18, 56.11 6.37 M17.4 50.9 C31.28 33.1, 46.28 17.48, 56.11 6.37 M34.72 55.36 C48.43 38.95, 59.51 27, 69.49 15.36 M34.72 55.36 C46.97 40.89, 60.7 23.84, 69.49 15.36 M62.54 47.74 C64.26 45.08, 66.24 44.35, 67.79 41.7 M62.54 47.74 C64.45 45.55, 66.3 43.5, 67.79 41.7" stroke="#ced4da" stroke-width="2" fill="none"></path><path d="M28.88 0.32 C35.22 -1.24, 44.33 0.24, 51.06 2.68 C57.8 5.12, 65.62 10.15, 69.31 14.94 C73 19.74, 74.04 26.2, 73.21 31.46 C72.38 36.72, 68.98 42.35, 64.31 46.51 C59.64 50.67, 52.16 55.25, 45.2 56.42 C38.24 57.59, 29.31 55.75, 22.52 53.53 C15.74 51.31, 8.26 47.91, 4.51 43.12 C0.75 38.32, -0.98 30.24, -0.01 24.76 C0.96 19.28, 4.78 14.33, 10.35 10.24 C15.91 6.14, 28.85 1.88, 33.4 0.18 C37.96 -1.52, 37.59 -0.49, 37.68 0.05 M46.2 0.03 C53.25 1.16, 61.44 6.89, 66.24 11.39 C71.03 15.89, 74.75 21.4, 74.99 27.02 C75.22 32.64, 71.99 40.27, 67.65 45.11 C63.31 49.95, 55.95 54.5, 48.95 56.08 C41.96 57.65, 32.76 56.47, 25.69 54.55 C18.63 52.63, 10.64 48.95, 6.59 44.56 C2.53 40.16, 1.56 33.31, 1.37 28.17 C1.18 23.02, 1.48 18.08, 5.46 13.69 C9.43 9.3, 18.58 3.81, 25.22 1.82 C31.86 -0.18, 41.61 1.53, 45.3 1.72 C48.99 1.9, 47.4 2.55, 47.39 2.92" stroke="#1864ab" stroke-width="4" fill="none"></path></g><g stroke-linecap="round"><g transform="translate(232.13660339464604 50.265615021179656) rotate(0 12.86830241255575 -4.151193345730462)"><path d="M-0.23 0.49 C2.45 0.53, 11.72 1.84, 16.02 0.24 C20.32 -1.35, 23.91 -7.64, 25.56 -9.08 M0.65 0.26 C3.29 0.39, 11.7 2.37, 15.77 0.88 C19.85 -0.62, 23.4 -6.98, 25.12 -8.7" stroke="#1864ab" stroke-width="4" fill="none"></path></g></g><mask></mask><g stroke-linecap="round"><g transform="translate(237.10967028288906 80.52868787164516) rotate(0 14.343020779093422 -7.386439597199569)"><path d="M0.8 -0.27 C5.6 1.51, 26.21 16.15, 28.3 11.73 C30.39 7.3, 15.7 -20.22, 13.33 -26.84 M-0.25 -1.46 C4.41 0.96, 24.98 17.36, 27.15 12.79 C29.31 8.22, 15.4 -22.23, 12.73 -28.88" stroke="#1864ab" stroke-width="4" fill="none"></path></g></g><mask></mask><g stroke-linecap="round"><g transform="translate(231.1447674736537 90.37076999797137) rotate(0 -0.8947347387570517 63.07880249550408)"><path d="M-0.39 -0.9 C-0.76 8.36, -1.55 34.21, -1.46 55.29 C-1.37 76.38, 0 113.83, 0.15 125.6 M1.61 1.24 C1.04 10.17, -1.96 32.57, -2.24 53.47 C-2.52 74.37, -0.42 114.38, -0.07 126.63" stroke="#1864ab" stroke-width="4" fill="none"></path></g></g><mask></mask><g stroke-linecap="round"><g transform="translate(219.9605832391917 226.96694807885615) rotate(0 -18.491182325547925 -0.14912359417348853)"><path d="M0.15 0.26 C-5.9 0.24, -30.34 -0.44, -36.51 -0.55 M-0.44 -0.08 C-6.51 0, -30.58 -0.02, -36.69 0.02" stroke="#1864ab" stroke-width="4" fill="none"></path></g></g><mask></mask><g stroke-linecap="round"><g transform="translate(235.9166951820689 226.51958070947876) rotate(0 19.236796883273655 -0.22368368468914923)"><path d="M0.48 -0.25 C6.89 -0.39, 32.35 -0.54, 38.62 -0.53 M0.06 0.81 C6.4 0.74, 31.74 0.45, 38.26 0.12" stroke="#1864ab" stroke-width="4" fill="none"></path></g></g><mask></mask><g stroke-linecap="round"><g transform="translate(254.2756090630155 32.22655882417166) rotate(0 4.027822594168811 -1.303762580266266)"><path d="M0.09 -0.06 C0.81 -0.62, 3.24 -3.74, 4.59 -3.52 C5.94 -3.3, 7.65 0.51, 8.19 1.24 M-0.29 -0.39 C0.51 -1.04, 3.87 -4.23, 5.25 -4.06 C6.64 -3.89, 7.62 -0.22, 8.03 0.64" stroke="#1864ab" stroke-width="4" fill="none"></path></g></g><mask></mask><g stroke-linecap="round"><g transform="translate(237.98265915571665 31.5184856108026) rotate(0 4.558254922151718 -2.2818121054433504)"><path d="M-0.26 0.16 C0.5 -0.56, 3.11 -4.31, 4.62 -4.39 C6.14 -4.48, 8.07 -1.04, 8.85 -0.35 M0.26 -0.06 C0.97 -0.89, 2.86 -4.93, 4.41 -4.93 C5.96 -4.93, 8.72 -0.89, 9.56 -0.06" stroke="#1864ab" stroke-width="4" fill="none"></path></g></g><mask></mask><g stroke-linecap="round"><g transform="translate(240.31096053177862 12.781283348575016) rotate(0 -33.38534830296908 29.67586001253858)" fill-rule="evenodd"><path d="M-0.17 1.88 C-2.6 5.93, -5.93 17.91, -12.7 24.21 C-19.46 30.5, -31.35 36.83, -40.76 39.65 C-50.18 42.46, -66.61 38.1, -69.18 41.1 C-71.75 44.1, -60.56 57.77, -56.17 57.64 C-51.78 57.52, -45.05 45.79, -42.87 40.34 C-40.69 34.89, -43.78 29.7, -43.1 24.96 C-42.42 20.23, -43.71 15.83, -38.78 11.93 C-33.84 8.03, -19.77 3.47, -13.47 1.54 C-7.16 -0.39, -3.1 0.88, -0.93 0.33" stroke="none" stroke-width="0" fill="#fab005" fill-rule="evenodd"></path><path d="M0.44 0.58 C-1.42 4.1, -5.66 14.86, -12.04 21.64 C-18.42 28.42, -28.57 37.41, -37.84 41.24 C-47.11 45.08, -64.39 41.52, -67.66 44.65 C-70.92 47.79, -61.73 61.03, -57.41 60.05 C-53.1 59.07, -43.69 44.59, -41.76 38.77 C-39.83 32.96, -46.8 29.72, -45.81 25.16 C-44.83 20.61, -40.83 15.72, -35.85 11.44 C-30.86 7.15, -21.83 1.49, -15.92 -0.54 C-10.02 -2.58, -3.15 -0.98, -0.44 -0.79 M-0.79 -0.16 C-2.2 3.46, -3.56 15.75, -9.81 22.85 C-16.06 29.95, -28.61 39.13, -38.29 42.43 C-47.97 45.74, -64.52 39.69, -67.87 42.7 C-71.22 45.7, -62.99 61.28, -58.39 60.46 C-53.8 59.63, -42.47 43.82, -40.32 37.73 C-38.17 31.64, -46.13 28.31, -45.5 23.93 C-44.88 19.55, -41.74 15.73, -36.57 11.43 C-31.4 7.14, -20.62 0.32, -14.51 -1.86 C-8.39 -4.04, -2.46 -1.67, 0.1 -1.66" stroke="#e67700" stroke-width="4" fill="none"></path></g></g><mask></mask><g stroke-linecap="round"><g transform="translate(233.44682323537745 97.25088462102212) rotate(0 -9.187065381830735 44.386710224188846)" fill-rule="evenodd"><path d="M-0.89 -1.61 C-1.44 7.38, 0.37 40.78, -5.52 54.24 C-11.41 67.7, -40.42 73.09, -36.24 79.16 C-32.05 85.23, 13.8 95.87, 19.6 90.66 C25.41 85.45, 2.26 63.31, -1.4 47.9 C-5.05 32.48, -2.15 6.55, -2.32 -1.83" stroke="none" stroke-width="0" fill="#fab005" fill-rule="evenodd"></path><path d="M-0.91 -0.62 C-1.92 8.09, 0.71 39.32, -5.64 52.82 C-11.99 66.32, -43.42 74.39, -39.03 80.39 C-34.64 86.39, 14.15 94.54, 20.7 88.8 C27.24 83.06, 3.78 60.71, 0.23 45.94 C-3.33 31.18, -0.68 7.76, -0.63 0.21 M0.81 1.67 C-0.35 10.51, -0.04 41.4, -6.27 54.23 C-12.51 67.06, -41.21 72.7, -36.6 78.65 C-31.98 84.6, 15.53 95.3, 21.43 89.92 C27.33 84.53, 2.28 61.44, -1.21 46.33 C-4.71 31.22, 0 7.06, 0.46 -0.72" stroke="#1864ab" stroke-width="4" fill="none"></path></g></g><mask></mask><g transform="translate(10 254.37792972786792) rotate(0 148.66595458984375 70)"><text x="148.66595458984375" y="0" font-family="Virgil, Segoe UI Emoji" font-size="28px" fill="#1e1e1e" text-anchor="middle" style="white-space: pre;" direction="ltr" dominant-baseline="text-before-edge">Devs</text><text x="148.66595458984375" y="35" font-family="Virgil, Segoe UI Emoji" font-size="28px" fill="#1e1e1e" text-anchor="middle" style="white-space: pre;" direction="ltr" dominant-baseline="text-before-edge">Fazemos a alteração</text><text x="148.66595458984375" y="70" font-family="Virgil, Segoe UI Emoji" font-size="28px" fill="#1e1e1e" text-anchor="middle" style="white-space: pre;" direction="ltr" dominant-baseline="text-before-edge">no projeto</text><text x="148.66595458984375" y="105" font-family="Virgil, Segoe UI Emoji" font-size="28px" fill="#1e1e1e" text-anchor="middle" style="white-space: pre;" direction="ltr" dominant-baseline="text-before-edge">(a nível JavaScript)</text></g><g mask="url(#mask-cS0YfaJTU_P3IZJe8uoyG)" stroke-linecap="round"><g transform="translate(303.1818389892578 122.55992130501636) rotate(0 277.13776789217536 6.619007262404466)"><path d="M0 0 C92.38 2.21, 461.9 11.03, 554.28 13.24 M0 0 C92.38 2.21, 461.9 11.03, 554.28 13.24" stroke="#1e1e1e" stroke-width="1" fill="none"></path></g><g transform="translate(303.1818389892578 122.55992130501636) rotate(0 277.13776789217536 6.619007262404466)"><path d="M554.28 13.24 L540.53 19.25 L540.84 6.58 L554.28 13.24" stroke="none" stroke-width="0" fill="#1e1e1e" fill-rule="evenodd"></path><path d="M554.28 13.24 C549.12 15.49, 543.97 17.75, 540.53 19.25 M554.28 13.24 C550.35 14.96, 546.42 16.67, 540.53 19.25 M540.53 19.25 C540.61 16.24, 540.68 13.23, 540.84 6.58 M540.53 19.25 C540.63 15.36, 540.72 11.48, 540.84 6.58 M540.84 6.58 C545.69 8.98, 550.55 11.39, 554.28 13.24 M540.84 6.58 C546.02 9.15, 551.21 11.72, 554.28 13.24 M554.28 13.24 C554.28 13.24, 554.28 13.24, 554.28 13.24 M554.28 13.24 C554.28 13.24, 554.28 13.24, 554.28 13.24" stroke="#1e1e1e" stroke-width="1" fill="none"></path></g></g><mask id="mask-cS0YfaJTU_P3IZJe8uoyG"><rect x="0" y="0" fill="#fff" width="957.4573747736085" height="235.7979358298253"></rect><rect x="482.3336525967652" y="94.17892856742037" fill="#000" width="195.97190856933594" height="70" opacity="1"></rect></mask><g transform="translate(482.3336525967652 94.17892856742037) rotate(0 97.98595428466797 35.000000000000455)"><text x="97.98595428466797" y="0" font-family="Virgil, Segoe UI Emoji" font-size="28px" fill="#1e1e1e" text-anchor="middle" style="white-space: pre;" direction="ltr" dominant-baseline="text-before-edge">Comando</text><text x="97.98595428466797" y="35" font-family="Virgil, Segoe UI Emoji" font-size="28px" fill="#1e1e1e" text-anchor="middle" style="white-space: pre;" direction="ltr" dominant-baseline="text-before-edge">CLI appcenter</text></g><g stroke-linecap="round" transform="translate(871.2355177174213 112.41455033272996) rotate(0 37.13578798423214 37.13585464869311)"><path d="M74.27 37.14 C74.27 39.07, 74.12 41.03, 73.81 42.95 C73.51 44.86, 73.05 46.77, 72.45 48.61 C71.86 50.45, 71.1 52.27, 70.22 54 C69.34 55.72, 68.32 57.4, 67.18 58.96 C66.04 60.53, 64.76 62.03, 63.39 63.39 C62.03 64.76, 60.53 66.04, 58.96 67.18 C57.4 68.32, 55.72 69.35, 54 70.22 C52.27 71.1, 50.45 71.86, 48.61 72.45 C46.77 73.05, 44.86 73.51, 42.95 73.81 C41.03 74.12, 39.07 74.27, 37.14 74.27 C35.2 74.27, 33.24 74.12, 31.33 73.81 C29.41 73.51, 27.5 73.05, 25.66 72.45 C23.82 71.86, 22 71.1, 20.28 70.22 C18.55 69.35, 16.87 68.32, 15.31 67.18 C13.74 66.04, 12.25 64.76, 10.88 63.39 C9.51 62.03, 8.23 60.53, 7.09 58.96 C5.95 57.4, 4.93 55.72, 4.05 54 C3.17 52.27, 2.42 50.45, 1.82 48.61 C1.22 46.77, 0.76 44.86, 0.46 42.95 C0.15 41.03, 0 39.07, 0 37.14 C0 35.2, 0.15 33.24, 0.46 31.33 C0.76 29.41, 1.22 27.5, 1.82 25.66 C2.42 23.82, 3.17 22, 4.05 20.28 C4.93 18.55, 5.95 16.87, 7.09 15.31 C8.23 13.74, 9.51 12.25, 10.88 10.88 C12.25 9.51, 13.74 8.23, 15.31 7.09 C16.87 5.95, 18.55 4.93, 20.28 4.05 C22 3.17, 23.82 2.42, 25.66 1.82 C27.5 1.22, 29.41 0.76, 31.33 0.46 C33.24 0.15, 35.2 0, 37.14 0 C39.07 0, 41.03 0.15, 42.95 0.46 C44.86 0.76, 46.77 1.22, 48.61 1.82 C50.45 2.42, 52.27 3.17, 54 4.05 C55.72 4.93, 57.4 5.95, 58.96 7.09 C60.53 8.23, 62.03 9.51, 63.39 10.88 C64.76 12.25, 66.04 13.74, 67.18 15.31 C68.32 16.87, 69.34 18.55, 70.22 20.28 C71.1 22, 71.86 23.82, 72.45 25.66 C73.05 27.5, 73.51 29.41, 73.81 31.33 C74.12 33.24, 74.2 36.17, 74.27 37.14 C74.35 38.1, 74.35 36.17, 74.27 37.14" stroke="none" stroke-width="0" fill="#228be6"></path><path d="M74.27 37.14 C74.27 39.07, 74.12 41.03, 73.81 42.95 C73.51 44.86, 73.05 46.77, 72.45 48.61 C71.86 50.45, 71.1 52.27, 70.22 54 C69.34 55.72, 68.32 57.4, 67.18 58.96 C66.04 60.53, 64.76 62.03, 63.39 63.39 C62.03 64.76, 60.53 66.04, 58.96 67.18 C57.4 68.32, 55.72 69.35, 54 70.22 C52.27 71.1, 50.45 71.86, 48.61 72.45 C46.77 73.05, 44.86 73.51, 42.95 73.81 C41.03 74.12, 39.07 74.27, 37.14 74.27 C35.2 74.27, 33.24 74.12, 31.33 73.81 C29.41 73.51, 27.5 73.05, 25.66 72.45 C23.82 71.86, 22 71.1, 20.28 70.22 C18.55 69.35, 16.87 68.32, 15.31 67.18 C13.74 66.04, 12.25 64.76, 10.88 63.39 C9.51 62.03, 8.23 60.53, 7.09 58.96 C5.95 57.4, 4.93 55.72, 4.05 54 C3.17 52.27, 2.42 50.45, 1.82 48.61 C1.22 46.77, 0.76 44.86, 0.46 42.95 C0.15 41.03, 0 39.07, 0 37.14 C0 35.2, 0.15 33.24, 0.46 31.33 C0.76 29.41, 1.22 27.5, 1.82 25.66 C2.42 23.82, 3.17 22, 4.05 20.28 C4.93 18.55, 5.95 16.87, 7.09 15.31 C8.23 13.74, 9.51 12.25, 10.88 10.88 C12.25 9.51, 13.74 8.23, 15.31 7.09 C16.87 5.95, 18.55 4.93, 20.28 4.05 C22 3.17, 23.82 2.42, 25.66 1.82 C27.5 1.22, 29.41 0.76, 31.33 0.46 C33.24 0.15, 35.2 0, 37.14 0 C39.07 0, 41.03 0.15, 42.95 0.46 C44.86 0.76, 46.77 1.22, 48.61 1.82 C50.45 2.42, 52.27 3.17, 54 4.05 C55.72 4.93, 57.4 5.95, 58.96 7.09 C60.53 8.23, 62.03 9.51, 63.39 10.88 C64.76 12.25, 66.04 13.74, 67.18 15.31 C68.32 16.87, 69.34 18.55, 70.22 20.28 C71.1 22, 71.86 23.82, 72.45 25.66 C73.05 27.5, 73.51 29.41, 73.81 31.33 C74.12 33.24, 74.2 36.17, 74.27 37.14 C74.35 38.1, 74.35 36.17, 74.27 37.14" stroke="#228be6" stroke-width="4" fill="none"></path></g><g stroke-linecap="round" transform="translate(914.5321501756862 61.235167555606495) rotate(0 55.547662138453234 53.3632427459429)"><path d="M111.1 53.36 C111.1 55.69, 110.94 58.03, 110.62 60.33 C110.3 62.63, 109.83 64.93, 109.2 67.17 C108.58 69.42, 107.79 71.64, 106.87 73.78 C105.94 75.93, 104.86 78.03, 103.65 80.04 C102.44 82.06, 101.09 84.01, 99.62 85.85 C98.15 87.69, 96.53 89.46, 94.83 91.1 C93.12 92.74, 91.28 94.29, 89.36 95.7 C87.45 97.11, 85.41 98.42, 83.32 99.58 C81.23 100.74, 79.04 101.78, 76.8 102.66 C74.57 103.55, 72.26 104.31, 69.92 104.91 C67.59 105.51, 65.19 105.97, 62.8 106.27 C60.4 106.57, 57.96 106.73, 55.55 106.73 C53.13 106.73, 50.69 106.57, 48.3 106.27 C45.9 105.97, 43.51 105.51, 41.17 104.91 C38.84 104.31, 36.52 103.55, 34.29 102.66 C32.06 101.78, 29.87 100.74, 27.77 99.58 C25.68 98.42, 23.65 97.11, 21.73 95.7 C19.82 94.29, 17.98 92.74, 16.27 91.1 C14.56 89.46, 12.95 87.69, 11.48 85.85 C10.01 84.01, 8.65 82.06, 7.44 80.04 C6.23 78.03, 5.15 75.93, 4.23 73.78 C3.3 71.64, 2.52 69.42, 1.89 67.17 C1.27 64.93, 0.79 62.63, 0.48 60.33 C0.16 58.03, 0 55.69, 0 53.36 C0 51.04, 0.16 48.7, 0.48 46.4 C0.79 44.1, 1.27 41.79, 1.89 39.55 C2.52 37.31, 3.3 35.09, 4.23 32.94 C5.15 30.8, 6.23 28.69, 7.44 26.68 C8.65 24.67, 10.01 22.72, 11.48 20.88 C12.95 19.04, 14.56 17.27, 16.27 15.63 C17.98 13.99, 19.82 12.44, 21.73 11.03 C23.65 9.61, 25.68 8.31, 27.77 7.15 C29.87 5.99, 32.06 4.95, 34.29 4.06 C36.52 3.17, 38.84 2.42, 41.17 1.82 C43.51 1.22, 45.9 0.76, 48.3 0.46 C50.69 0.15, 53.13 0, 55.55 0 C57.96 0, 60.4 0.15, 62.8 0.46 C65.19 0.76, 67.59 1.22, 69.92 1.82 C72.26 2.42, 74.57 3.17, 76.8 4.06 C79.04 4.95, 81.23 5.99, 83.32 7.15 C85.41 8.31, 87.45 9.61, 89.36 11.03 C91.28 12.44, 93.12 13.99, 94.83 15.63 C96.53 17.27, 98.15 19.04, 99.62 20.88 C101.09 22.72, 102.44 24.67, 103.65 26.68 C104.86 28.69, 105.94 30.8, 106.87 32.94 C107.79 35.09, 108.58 37.31, 109.2 39.55 C109.83 41.79, 110.3 44.1, 110.62 46.4 C110.94 48.7, 111.02 52.2, 111.1 53.36 C111.17 54.52, 111.17 52.2, 111.1 53.36" stroke="none" stroke-width="0" fill="#228be6"></path><path d="M111.1 53.36 C111.1 55.69, 110.94 58.03, 110.62 60.33 C110.3 62.63, 109.83 64.93, 109.2 67.17 C108.58 69.42, 107.79 71.64, 106.87 73.78 C105.94 75.93, 104.86 78.03, 103.65 80.04 C102.44 82.06, 101.09 84.01, 99.62 85.85 C98.15 87.69, 96.53 89.46, 94.83 91.1 C93.12 92.74, 91.28 94.29, 89.36 95.7 C87.45 97.11, 85.41 98.42, 83.32 99.58 C81.23 100.74, 79.04 101.78, 76.8 102.66 C74.57 103.55, 72.26 104.31, 69.92 104.91 C67.59 105.51, 65.19 105.97, 62.8 106.27 C60.4 106.57, 57.96 106.73, 55.55 106.73 C53.13 106.73, 50.69 106.57, 48.3 106.27 C45.9 105.97, 43.51 105.51, 41.17 104.91 C38.84 104.31, 36.52 103.55, 34.29 102.66 C32.06 101.78, 29.87 100.74, 27.77 99.58 C25.68 98.42, 23.65 97.11, 21.73 95.7 C19.82 94.29, 17.98 92.74, 16.27 91.1 C14.56 89.46, 12.95 87.69, 11.48 85.85 C10.01 84.01, 8.65 82.06, 7.44 80.04 C6.23 78.03, 5.15 75.93, 4.23 73.78 C3.3 71.64, 2.52 69.42, 1.89 67.17 C1.27 64.93, 0.79 62.63, 0.48 60.33 C0.16 58.03, 0 55.69, 0 53.36 C0 51.04, 0.16 48.7, 0.48 46.4 C0.79 44.1, 1.27 41.79, 1.89 39.55 C2.52 37.31, 3.3 35.09, 4.23 32.94 C5.15 30.8, 6.23 28.69, 7.44 26.68 C8.65 24.67, 10.01 22.72, 11.48 20.88 C12.95 19.04, 14.56 17.27, 16.27 15.63 C17.98 13.99, 19.82 12.44, 21.73 11.03 C23.65 9.61, 25.68 8.31, 27.77 7.15 C29.87 5.99, 32.06 4.95, 34.29 4.06 C36.52 3.17, 38.84 2.42, 41.17 1.82 C43.51 1.22, 45.9 0.76, 48.3 0.46 C50.69 0.15, 53.13 0, 55.55 0 C57.96 0, 60.4 0.15, 62.8 0.46 C65.19 0.76, 67.59 1.22, 69.92 1.82 C72.26 2.42, 74.57 3.17, 76.8 4.06 C79.04 4.95, 81.23 5.99, 83.32 7.15 C85.41 8.31, 87.45 9.61, 89.36 11.03 C91.28 12.44, 93.12 13.99, 94.83 15.63 C96.53 17.27, 98.15 19.04, 99.62 20.88 C101.09 22.72, 102.44 24.67, 103.65 26.68 C104.86 28.69, 105.94 30.8, 106.87 32.94 C107.79 35.09, 108.58 37.31, 109.2 39.55 C109.83 41.79, 110.3 44.1, 110.62 46.4 C110.94 48.7, 111.02 52.2, 111.1 53.36 C111.17 54.52, 111.17 52.2, 111.1 53.36" stroke="#228be6" stroke-width="4" fill="none"></path></g><g stroke-linecap="round" transform="translate(1059.642865678923 94.1581074270116) rotate(0 50.242570997139865 46.185734389149275)"><path d="M100.49 46.19 C100.49 48.2, 100.34 50.22, 100.06 52.21 C99.77 54.21, 99.34 56.2, 98.77 58.14 C98.21 60.08, 97.5 62, 96.66 63.86 C95.82 65.72, 94.85 67.54, 93.75 69.28 C92.66 71.02, 91.43 72.71, 90.1 74.3 C88.77 75.9, 87.32 77.42, 85.77 78.84 C84.22 80.26, 82.56 81.6, 80.83 82.83 C79.09 84.05, 77.26 85.18, 75.36 86.18 C73.47 87.19, 71.49 88.09, 69.47 88.86 C67.45 89.62, 65.36 90.28, 63.25 90.8 C61.13 91.32, 58.97 91.71, 56.8 91.98 C54.63 92.24, 52.43 92.37, 50.24 92.37 C48.06 92.37, 45.85 92.24, 43.68 91.98 C41.52 91.71, 39.35 91.32, 37.24 90.8 C35.13 90.28, 33.04 89.62, 31.02 88.86 C29 88.09, 27.01 87.19, 25.12 86.18 C23.23 85.18, 21.39 84.05, 19.66 82.83 C17.92 81.6, 16.26 80.26, 14.72 78.84 C13.17 77.42, 11.71 75.9, 10.38 74.3 C9.05 72.71, 7.82 71.02, 6.73 69.28 C5.64 67.54, 4.66 65.72, 3.82 63.86 C2.99 62, 2.28 60.08, 1.71 58.14 C1.15 56.2, 0.72 54.21, 0.43 52.21 C0.14 50.22, 0 48.2, 0 46.19 C0 44.18, 0.14 42.15, 0.43 40.16 C0.72 38.16, 1.15 36.17, 1.71 34.23 C2.28 32.29, 2.99 30.37, 3.82 28.51 C4.66 26.65, 5.64 24.83, 6.73 23.09 C7.82 21.35, 9.05 19.66, 10.38 18.07 C11.71 16.48, 13.17 14.95, 14.72 13.53 C16.26 12.11, 17.92 10.77, 19.66 9.54 C21.39 8.32, 23.23 7.19, 25.12 6.19 C27.01 5.18, 29 4.28, 31.02 3.52 C33.04 2.75, 35.13 2.09, 37.24 1.57 C39.35 1.05, 41.52 0.66, 43.68 0.4 C45.85 0.13, 48.06 0, 50.24 0 C52.43 0, 54.63 0.13, 56.8 0.4 C58.97 0.66, 61.13 1.05, 63.25 1.57 C65.36 2.09, 67.45 2.75, 69.47 3.52 C71.49 4.28, 73.47 5.18, 75.36 6.19 C77.26 7.19, 79.09 8.32, 80.83 9.54 C82.56 10.77, 84.22 12.11, 85.77 13.53 C87.32 14.95, 88.77 16.48, 90.1 18.07 C91.43 19.66, 92.66 21.35, 93.75 23.09 C94.85 24.83, 95.82 26.65, 96.66 28.51 C97.5 30.37, 98.21 32.29, 98.77 34.23 C99.34 36.17, 99.77 38.16, 100.06 40.16 C100.34 42.15, 100.41 45.18, 100.49 46.19 C100.56 47.19, 100.56 45.18, 100.49 46.19" stroke="none" stroke-width="0" fill="#228be6"></path><path d="M100.49 46.19 C100.49 48.2, 100.34 50.22, 100.06 52.21 C99.77 54.21, 99.34 56.2, 98.77 58.14 C98.21 60.08, 97.5 62, 96.66 63.86 C95.82 65.72, 94.85 67.54, 93.75 69.28 C92.66 71.02, 91.43 72.71, 90.1 74.3 C88.77 75.9, 87.32 77.42, 85.77 78.84 C84.22 80.26, 82.56 81.6, 80.83 82.83 C79.09 84.05, 77.26 85.18, 75.36 86.18 C73.47 87.19, 71.49 88.09, 69.47 88.86 C67.45 89.62, 65.36 90.28, 63.25 90.8 C61.13 91.32, 58.97 91.71, 56.8 91.98 C54.63 92.24, 52.43 92.37, 50.24 92.37 C48.06 92.37, 45.85 92.24, 43.68 91.98 C41.52 91.71, 39.35 91.32, 37.24 90.8 C35.13 90.28, 33.04 89.62, 31.02 88.86 C29 88.09, 27.01 87.19, 25.12 86.18 C23.23 85.18, 21.39 84.05, 19.66 82.83 C17.92 81.6, 16.26 80.26, 14.72 78.84 C13.17 77.42, 11.71 75.9, 10.38 74.3 C9.05 72.71, 7.82 71.02, 6.73 69.28 C5.64 67.54, 4.66 65.72, 3.82 63.86 C2.99 62, 2.28 60.08, 1.71 58.14 C1.15 56.2, 0.72 54.21, 0.43 52.21 C0.14 50.22, 0 48.2, 0 46.19 C0 44.18, 0.14 42.15, 0.43 40.16 C0.72 38.16, 1.15 36.17, 1.71 34.23 C2.28 32.29, 2.99 30.37, 3.82 28.51 C4.66 26.65, 5.64 24.83, 6.73 23.09 C7.82 21.35, 9.05 19.66, 10.38 18.07 C11.71 16.48, 13.17 14.95, 14.72 13.53 C16.26 12.11, 17.92 10.77, 19.66 9.54 C21.39 8.32, 23.23 7.19, 25.12 6.19 C27.01 5.18, 29 4.28, 31.02 3.52 C33.04 2.75, 35.13 2.09, 37.24 1.57 C39.35 1.05, 41.52 0.66, 43.68 0.4 C45.85 0.13, 48.06 0, 50.24 0 C52.43 0, 54.63 0.13, 56.8 0.4 C58.97 0.66, 61.13 1.05, 63.25 1.57 C65.36 2.09, 67.45 2.75, 69.47 3.52 C71.49 4.28, 73.47 5.18, 75.36 6.19 C77.26 7.19, 79.09 8.32, 80.83 9.54 C82.56 10.77, 84.22 12.11, 85.77 13.53 C87.32 14.95, 88.77 16.48, 90.1 18.07 C91.43 19.66, 92.66 21.35, 93.75 23.09 C94.85 24.83, 95.82 26.65, 96.66 28.51 C97.5 30.37, 98.21 32.29, 98.77 34.23 C99.34 36.17, 99.77 38.16, 100.06 40.16 C100.34 42.15, 100.41 45.18, 100.49 46.19 C100.56 47.19, 100.56 45.18, 100.49 46.19" stroke="#228be6" stroke-width="4" fill="none"></path></g><g stroke-linecap="round" transform="translate(992.236495900147 22.851058373589694) rotate(0 61.47693262803841 59.29250073594176)"><path d="M122.95 59.29 C122.95 61.67, 122.8 64.07, 122.51 66.44 C122.21 68.8, 121.76 71.17, 121.17 73.48 C120.58 75.8, 119.83 78.09, 118.96 80.32 C118.08 82.55, 117.06 84.74, 115.91 86.85 C114.76 88.96, 113.47 91.01, 112.07 92.97 C110.67 94.94, 109.13 96.83, 107.49 98.61 C105.86 100.39, 104.09 102.09, 102.24 103.67 C100.39 105.25, 98.43 106.74, 96.4 108.09 C94.37 109.44, 92.23 110.69, 90.05 111.79 C87.86 112.9, 85.59 113.89, 83.28 114.73 C80.97 115.58, 78.59 116.29, 76.19 116.86 C73.79 117.43, 71.34 117.87, 68.89 118.15 C66.44 118.44, 63.95 118.59, 61.48 118.59 C59.01 118.59, 56.52 118.44, 54.07 118.15 C51.61 117.87, 49.16 117.43, 46.76 116.86 C44.37 116.29, 41.99 115.58, 39.68 114.73 C37.37 113.89, 35.09 112.9, 32.91 111.79 C30.72 110.69, 28.59 109.44, 26.55 108.09 C24.52 106.74, 22.56 105.25, 20.71 103.67 C18.86 102.09, 17.1 100.39, 15.46 98.61 C13.82 96.83, 12.29 94.94, 10.88 92.97 C9.48 91.01, 8.19 88.96, 7.04 86.85 C5.89 84.74, 4.87 82.55, 4 80.32 C3.12 78.09, 2.38 75.8, 1.79 73.48 C1.2 71.17, 0.75 68.8, 0.45 66.44 C0.15 64.07, 0 61.67, 0 59.29 C0 56.91, 0.15 54.51, 0.45 52.15 C0.75 49.78, 1.2 47.42, 1.79 45.1 C2.38 42.79, 3.12 40.49, 4 38.27 C4.87 36.04, 5.89 33.85, 7.04 31.74 C8.19 29.63, 9.48 27.57, 10.88 25.61 C12.29 23.65, 13.82 21.76, 15.46 19.97 C17.1 18.19, 18.86 16.49, 20.71 14.91 C22.56 13.33, 24.52 11.85, 26.55 10.5 C28.59 9.14, 30.72 7.9, 32.91 6.79 C35.09 5.68, 37.37 4.7, 39.68 3.85 C41.99 3.01, 44.37 2.29, 46.76 1.72 C49.16 1.15, 51.61 0.72, 54.07 0.43 C56.52 0.15, 59.01 0, 61.48 0 C63.95 0, 66.44 0.15, 68.89 0.43 C71.34 0.72, 73.79 1.15, 76.19 1.72 C78.59 2.29, 80.97 3.01, 83.28 3.85 C85.59 4.7, 87.86 5.68, 90.05 6.79 C92.23 7.9, 94.37 9.14, 96.4 10.5 C98.43 11.85, 100.39 13.33, 102.24 14.91 C104.09 16.49, 105.86 18.19, 107.49 19.97 C109.13 21.76, 110.67 23.65, 112.07 25.61 C113.47 27.57, 114.76 29.63, 115.91 31.74 C117.06 33.85, 118.08 36.04, 118.96 38.27 C119.83 40.49, 120.58 42.79, 121.17 45.1 C121.76 47.42, 122.21 49.78, 122.51 52.15 C122.8 54.51, 122.95 56.91, 122.95 59.29" stroke="none" stroke-width="0" fill="#228be6"></path><path d="M122.95 59.29 C122.95 61.67, 122.8 64.07, 122.51 66.44 C122.21 68.8, 121.76 71.17, 121.17 73.48 C120.58 75.8, 119.83 78.09, 118.96 80.32 C118.08 82.55, 117.06 84.74, 115.91 86.85 C114.76 88.96, 113.47 91.01, 112.07 92.97 C110.67 94.94, 109.13 96.83, 107.49 98.61 C105.86 100.39, 104.09 102.09, 102.24 103.67 C100.39 105.25, 98.43 106.74, 96.4 108.09 C94.37 109.44, 92.23 110.69, 90.05 111.79 C87.86 112.9, 85.59 113.89, 83.28 114.73 C80.97 115.58, 78.59 116.29, 76.19 116.86 C73.79 117.43, 71.34 117.87, 68.89 118.15 C66.44 118.44, 63.95 118.59, 61.48 118.59 C59.01 118.59, 56.52 118.44, 54.07 118.15 C51.61 117.87, 49.16 117.43, 46.76 116.86 C44.37 116.29, 41.99 115.58, 39.68 114.73 C37.37 113.89, 35.09 112.9, 32.91 111.79 C30.72 110.69, 28.59 109.44, 26.55 108.09 C24.52 106.74, 22.56 105.25, 20.71 103.67 C18.86 102.09, 17.1 100.39, 15.46 98.61 C13.82 96.83, 12.29 94.94, 10.88 92.97 C9.48 91.01, 8.19 88.96, 7.04 86.85 C5.89 84.74, 4.87 82.55, 4 80.32 C3.12 78.09, 2.38 75.8, 1.79 73.48 C1.2 71.17, 0.75 68.8, 0.45 66.44 C0.15 64.07, 0 61.67, 0 59.29 C0 56.91, 0.15 54.51, 0.45 52.15 C0.75 49.78, 1.2 47.42, 1.79 45.1 C2.38 42.79, 3.12 40.49, 4 38.27 C4.87 36.04, 5.89 33.85, 7.04 31.74 C8.19 29.63, 9.48 27.57, 10.88 25.61 C12.29 23.65, 13.82 21.76, 15.46 19.97 C17.1 18.19, 18.86 16.49, 20.71 14.91 C22.56 13.33, 24.52 11.85, 26.55 10.5 C28.59 9.14, 30.72 7.9, 32.91 6.79 C35.09 5.68, 37.37 4.7, 39.68 3.85 C41.99 3.01, 44.37 2.29, 46.76 1.72 C49.16 1.15, 51.61 0.72, 54.07 0.43 C56.52 0.15, 59.01 0, 61.48 0 C63.95 0, 66.44 0.15, 68.89 0.43 C71.34 0.72, 73.79 1.15, 76.19 1.72 C78.59 2.29, 80.97 3.01, 83.28 3.85 C85.59 4.7, 87.86 5.68, 90.05 6.79 C92.23 7.9, 94.37 9.14, 96.4 10.5 C98.43 11.85, 100.39 13.33, 102.24 14.91 C104.09 16.49, 105.86 18.19, 107.49 19.97 C109.13 21.76, 110.67 23.65, 112.07 25.61 C113.47 27.57, 114.76 29.63, 115.91 31.74 C117.06 33.85, 118.08 36.04, 118.96 38.27 C119.83 40.49, 120.58 42.79, 121.17 45.1 C121.76 47.42, 122.21 49.78, 122.51 52.15 C122.8 54.51, 122.95 56.91, 122.95 59.29" stroke="#228be6" stroke-width="4" fill="none"></path></g><g stroke-linecap="round" transform="translate(899.5530291113455 126.14489493881501) rotate(0 116.71268841962365 30.270365135046177)"><path d="M15.14 0 C76.15 0, 137.16 0, 218.29 0 C228.38 0, 233.43 5.05, 233.43 15.14 C233.43 22.21, 233.43 29.29, 233.43 45.41 C233.43 55.5, 228.38 60.54, 218.29 60.54 C157.44 60.54, 96.6 60.54, 15.14 60.54 C5.05 60.54, 0 55.5, 0 45.41 C0 39.23, 0 33.05, 0 15.14 C0 5.05, 5.05 0, 15.14 0" stroke="none" stroke-width="0" fill="#228be6"></path><path d="M15.14 0 C72.53 0, 129.92 0, 218.29 0 M15.14 0 C60.03 0, 104.92 0, 218.29 0 M218.29 0 C228.38 0, 233.43 5.05, 233.43 15.14 M218.29 0 C228.38 0, 233.43 5.05, 233.43 15.14 M233.43 15.14 C233.43 26.73, 233.43 38.33, 233.43 45.41 M233.43 15.14 C233.43 24.31, 233.43 33.48, 233.43 45.41 M233.43 45.41 C233.43 55.5, 228.38 60.54, 218.29 60.54 M233.43 45.41 C233.43 55.5, 228.38 60.54, 218.29 60.54 M218.29 60.54 C148.49 60.54, 78.69 60.54, 15.14 60.54 M218.29 60.54 C150.3 60.54, 82.32 60.54, 15.14 60.54 M15.14 60.54 C5.05 60.54, 0 55.5, 0 45.41 M15.14 60.54 C5.05 60.54, 0 55.5, 0 45.41 M0 45.41 C0 36.95, 0 28.5, 0 15.14 M0 45.41 C0 34.18, 0 22.95, 0 15.14 M0 15.14 C0 5.05, 5.05 0, 15.14 0 M0 15.14 C0 5.05, 5.05 0, 15.14 0" stroke="#228be6" stroke-width="4" fill="none"></path></g><g transform="translate(912.5674843305096 125.15820277996318) rotate(0 104.92610168457031 27.09048806239298)"><text x="209.85220336914062" y="0" font-family="Virgil, Segoe UI Emoji" font-size="43.3447808998285px" fill="#ffffff" text-anchor="end" style="white-space: pre;" direction="ltr" dominant-baseline="text-before-edge">AppCenter</text></g><g mask="url(#mask-PuqKZy6a5_0ccsWbOn9bz)" stroke-linecap="round"><g transform="translate(1174.973017919946 125.10851127374735) rotate(0 281.87785380691594 -0.949646741363722)"><path d="M0 0 C93.96 -0.32, 469.8 -1.58, 563.76 -1.9 M0 0 C93.96 -0.32, 469.8 -1.58, 563.76 -1.9" stroke="#1e1e1e" stroke-width="1" fill="none"></path></g><g transform="translate(1174.973017919946 125.10851127374735) rotate(0 281.87785380691594 -0.949646741363722)"><path d="M563.76 -1.9 L550.18 4.49 L550.14 -8.19 L563.76 -1.9" stroke="none" stroke-width="0" fill="#1e1e1e" fill-rule="evenodd"></path><path d="M563.76 -1.9 C559.05 0.31, 554.35 2.52, 550.18 4.49 M563.76 -1.9 C560.7 -0.46, 557.65 0.97, 550.18 4.49 M550.18 4.49 C550.17 -0.19, 550.15 -4.87, 550.14 -8.19 M550.18 4.49 C550.17 -0.02, 550.15 -4.52, 550.14 -8.19 M550.14 -8.19 C553.59 -6.6, 557.04 -5, 563.76 -1.9 M550.14 -8.19 C553.2 -6.78, 556.26 -5.36, 563.76 -1.9 M563.76 -1.9 C563.76 -1.9, 563.76 -1.9, 563.76 -1.9 M563.76 -1.9 C563.76 -1.9, 563.76 -1.9, 563.76 -1.9" stroke="#1e1e1e" stroke-width="1" fill="none"></path></g></g><mask id="mask-PuqKZy6a5_0ccsWbOn9bz"><rect x="0" y="0" fill="#fff" width="1838.7287255337778" height="227.0078047564748"></rect><rect x="1367.0269123762755" y="71.65886453238363" fill="#000" width="179.64791870117188" height="105" opacity="1"></rect></mask><g transform="translate(1367.0269123762755 71.65886453238363) rotate(0 89.82395935058639 52.5)"><text x="89.82395935058594" y="0" font-family="Virgil, Segoe UI Emoji" font-size="28px" fill="#1e1e1e" text-anchor="middle" style="white-space: pre;" direction="ltr" dominant-baseline="text-before-edge">Atualização</text><text x="89.82395935058594" y="35" font-family="Virgil, Segoe UI Emoji" font-size="28px" fill="#1e1e1e" text-anchor="middle" style="white-space: pre;" direction="ltr" dominant-baseline="text-before-edge">enviada para</text><text x="89.82395935058594" y="70" font-family="Virgil, Segoe UI Emoji" font-size="28px" fill="#1e1e1e" text-anchor="middle" style="white-space: pre;" direction="ltr" dominant-baseline="text-before-edge">usuáiros</text></g><g stroke-linecap="round" transform="translate(1750.9090423583984 43.696243326500735) rotate(0 50 80)"><path d="M6 6.54 C6 6.54, 6 6.54, 6 6.54 M6 6.54 C6 6.54, 6 6.54, 6 6.54 M6.39 12.18 C9.6 8.55, 13.42 3.99, 14.92 2.37 M6.39 12.18 C7.55 10.48, 10 8.56, 14.92 2.37 M3.51 21.6 C9.06 15.52, 14.76 5.18, 21.22 1.22 M3.51 21.6 C7.86 16.09, 12.4 10.51, 21.22 1.22 M3.25 28 C12.46 17.52, 18.67 10.85, 26.21 1.58 M3.25 28 C7.95 20.95, 13.22 14.93, 26.21 1.58 M3.64 33.64 C12.11 20.47, 25.17 12.39, 31.85 1.19 M3.64 33.64 C9.8 27.07, 14.75 19.92, 31.85 1.19 M3.38 40.04 C13.14 29.37, 23.96 16.38, 36.84 1.55 M3.38 40.04 C12.13 30.19, 19.99 22.82, 36.84 1.55 M3.12 46.44 C16.17 34.96, 24.88 21.12, 42.48 1.15 M3.12 46.44 C13.32 33.72, 23.99 22.61, 42.48 1.15 M3.51 52.08 C18.69 37.1, 30.72 19, 47.47 1.51 M3.51 52.08 C17.95 34.59, 35.22 16.43, 47.47 1.51 M3.25 58.48 C22.28 37.39, 41.39 14.92, 53.11 1.12 M3.25 58.48 C17.55 41.49, 30.73 26.84, 53.11 1.12 M2.99 64.87 C17.93 45.41, 37.63 27.43, 58.1 1.48 M2.99 64.87 C23.65 41.27, 45.4 15.27, 58.1 1.48 M3.38 70.52 C24.27 45.97, 42.43 24.83, 63.09 1.84 M3.38 70.52 C19.75 51.78, 35.72 33.94, 63.09 1.84 M3.12 76.92 C24.23 51.62, 46.68 26.53, 68.73 1.44 M3.12 76.92 C25.49 52.91, 47.33 27.49, 68.73 1.44 M2.86 83.31 C19.68 65.89, 32.49 50.44, 73.72 1.8 M2.86 83.31 C24.02 59.41, 46.17 34.48, 73.72 1.8 M3.26 88.96 C19.75 70.08, 37.91 47.81, 79.36 1.41 M3.26 88.96 C18.64 72.06, 32.95 54.52, 79.36 1.41 M2.99 95.35 C25.6 72.19, 45.28 48.28, 83.69 2.52 M2.99 95.35 C24.21 71.55, 45.62 48.81, 83.69 2.52 M3.39 101 C22.17 76.84, 43.2 51.26, 87.36 4.39 M3.39 101 C25.11 76.85, 45.95 53.65, 87.36 4.39 M3.13 107.39 C26.25 80.45, 50.93 51.32, 92.35 4.75 M3.13 107.39 C23.95 84.04, 45.15 61.81, 92.35 4.75 M2.87 113.79 C34.1 76.47, 69.06 34.48, 95.37 7.38 M2.87 113.79 C31.36 81.79, 58.6 48.27, 95.37 7.38 M3.26 119.44 C26.84 89.43, 54.92 62.61, 97.08 11.51 M3.26 119.44 C36.11 81.61, 67.49 46.22, 97.08 11.51 M3 125.83 C23.29 100.9, 43.5 79.4, 99.44 14.89 M3 125.83 C30.41 93.69, 58.48 62.13, 99.44 14.89 M0.11 135.25 C21.65 111.74, 43.59 84.49, 100.49 19.78 M0.11 135.25 C34.78 97.41, 67.04 59.75, 100.49 19.78 M1.16 140.14 C32.45 103.05, 66.78 66.83, 100.88 25.42 M1.16 140.14 C25.3 111.17, 49.79 82.78, 100.88 25.42 M1.56 145.78 C32.16 112.53, 62.32 76.41, 100.62 31.82 M1.56 145.78 C34.17 107.69, 67.76 68.78, 100.62 31.82 M4.58 148.41 C33.96 115.39, 62.45 85.14, 100.36 38.22 M4.58 148.41 C34.13 111.76, 65.99 76.48, 100.36 38.22 M6.94 151.78 C29.27 124.71, 50.06 100.64, 100.76 43.86 M6.94 151.78 C38.71 114.5, 71.46 75.68, 100.76 43.86 M8.65 155.92 C46.39 112.69, 81.76 72.96, 100.5 50.26 M8.65 155.92 C31.17 128.83, 55.32 103.71, 100.5 50.26 M11.67 158.54 C46.69 120.41, 82.67 78.6, 100.89 55.9 M11.67 158.54 C44.11 123.74, 75.48 86.1, 100.89 55.9 M16 159.66 C33.84 137.02, 51.55 116.75, 100.63 62.3 M16 159.66 C47.19 123.8, 79.89 87.31, 100.63 62.3 M20.33 160.77 C36.21 140.43, 55.12 120.49, 100.37 68.7 M20.33 160.77 C47.91 128.92, 77.36 95.18, 100.37 68.7 M25.97 160.38 C40.75 142.33, 56.89 124.61, 100.76 74.34 M25.97 160.38 C45.42 138.66, 63.71 117.57, 100.76 74.34 M30.96 160.74 C49.37 138.65, 64.11 120.79, 100.5 80.74 M30.96 160.74 C57.22 130.28, 84.15 98.29, 100.5 80.74 M35.94 161.1 C54.66 140.9, 68.2 120.21, 100.24 87.14 M35.94 161.1 C53.02 139.95, 72.43 119.11, 100.24 87.14 M41.59 160.7 C59.12 138.2, 79.05 117.73, 100.63 92.78 M41.59 160.7 C60.27 139.13, 77.42 118.27, 100.63 92.78 M46.57 161.06 C57.22 146.39, 69.61 133.66, 100.37 99.18 M46.57 161.06 C61.74 144.05, 76.73 127.17, 100.37 99.18 M52.22 160.67 C67.91 144.5, 81.89 127.1, 100.77 104.82 M52.22 160.67 C69.66 140.78, 87.39 119.83, 100.77 104.82 M57.2 161.03 C74.33 142.14, 90.21 123.7, 100.5 111.22 M57.2 161.03 C68.53 148.4, 79.79 134.05, 100.5 111.22 M62.85 160.63 C70.83 153.21, 78.31 142.76, 100.24 117.62 M62.85 160.63 C72.02 149.78, 82.78 137.44, 100.24 117.62 M67.83 160.99 C77.69 148.29, 89.06 139.14, 100.64 123.26 M67.83 160.99 C76.89 150.42, 84.84 140.68, 100.64 123.26 M72.82 161.35 C82.57 150.97, 90.72 139.09, 100.38 129.66 M72.82 161.35 C81.8 151.12, 89.11 142.37, 100.38 129.66 M77.15 162.47 C80.5 156.16, 88.03 149.6, 100.12 136.05 M77.15 162.47 C85.95 153.39, 95.57 143.18, 100.12 136.05 M86.08 158.3 C89.99 151.91, 96.08 146.8, 100.51 141.7 M86.08 158.3 C91.14 151.84, 96.28 146.47, 100.51 141.7" stroke="#ced4da" stroke-width="0.5" fill="none"></path><path d="M25 0 C39.74 -1.87, 54.23 -1.97, 75 0 M25 0 C43.1 -0.47, 62.14 -0.25, 75 0 M75 0 C92.17 -0.35, 100.47 10.11, 100 25 M75 0 C90.09 -1.82, 99.53 8.62, 100 25 M100 25 C98.96 60.14, 99.13 94.78, 100 135 M100 25 C101.22 63.49, 100.15 102.49, 100 135 M100 135 C99.97 151.51, 90.46 159.7, 75 160 M100 135 C101.98 153.69, 90.64 160.08, 75 160 M75 160 C55.75 160.95, 37.95 160.97, 25 160 M75 160 C55.94 160.73, 37.16 159.26, 25 160 M25 160 C7.25 160.2, 0.92 152.5, 0 135 M25 160 C6.62 157.89, 1.21 152.06, 0 135 M0 135 C-0.93 92.9, 0.46 50.9, 0 25 M0 135 C-0.23 111.18, -1.27 88.09, 0 25 M0 25 C-1.76 9.79, 10.26 -0.14, 25 0 M0 25 C0.02 6.58, 6.19 -1.93, 25 0" stroke="#000000" stroke-width="1" fill="none"></path></g><g stroke-linecap="round" transform="translate(1760.9090423583984 53.696243326500735) rotate(0 40 60)"><path d="M-1.08 0.2 L80.92 0.84 L78.51 118.17 L1.05 120.34" stroke="none" stroke-width="0" fill="#ffffff"></path><path d="M0 0 C27.03 -1.11, 55.57 0.34, 80 0 M0 0 C25.47 0.15, 52.02 0.11, 80 0 M80 0 C79.48 38.38, 81.31 77.81, 80 120 M80 0 C81.01 41.46, 81.21 84.91, 80 120 M80 120 C52.52 120.37, 26.05 120.68, 0 120 M80 120 C57.5 120.76, 32.83 119.91, 0 120 M0 120 C-0.93 77.46, -0.4 33.49, 0 0 M0 120 C-0.87 75.74, -0.82 29.08, 0 0" stroke="#000000" stroke-width="1" fill="none"></path></g><g stroke-linecap="round" transform="translate(1790.9090423583984 183.69624332650073) rotate(0 10 10)"><path d="M3.1 2.7 C3.1 2.7, 3.1 2.7, 3.1 2.7 M3.1 2.7 C3.1 2.7, 3.1 2.7, 3.1 2.7 M0.88 11.36 C5.16 6.36, 8.99 3.39, 10.72 0.04 M0.88 11.36 C3.41 7.77, 6.91 4.81, 10.72 0.04 M1.93 16.25 C7.55 10.1, 12.07 4.34, 14.39 1.91 M1.93 16.25 C5.51 12.24, 8.39 8.92, 14.39 1.91 M5.6 18.12 C9.43 14.23, 12.62 8.41, 17.41 4.53 M5.6 18.12 C10.23 13.2, 14.71 8.33, 17.41 4.53 M9.28 19.99 C13.45 15.24, 15.9 11.29, 19.77 7.91 M9.28 19.99 C11.71 16.91, 14.13 14.45, 19.77 7.91 M2.12 15.85 C2.12 15.85, 2.12 15.85, 2.12 15.85 M2.12 15.85 C2.12 15.85, 2.12 15.85, 2.12 15.85 M11.53 18.74 C7.69 16.26, 5.81 12.36, 0.21 8.9 M11.53 18.74 C7.47 15, 3.24 11.55, 0.21 8.9 M15.67 17.03 C11.22 13.96, 5.65 8.48, 2.08 5.22 M15.67 17.03 C11.73 14.36, 8.83 10.74, 2.08 5.22 M19.05 14.67 C16.55 11.63, 12.99 9.14, 4.71 2.21 M19.05 14.67 C13.97 10.12, 9.7 6.22, 4.71 2.21 M20.16 10.34 C16.83 6.73, 12.18 4.1, 8.09 -0.16 M20.16 10.34 C15.75 6.68, 11.05 2.56, 8.09 -0.16" stroke="#868e96" stroke-width="0.5" fill="none"></path><path d="M9.41 -0.2 C11.41 -0.33, 14.33 0.84, 16.04 2.21 C17.75 3.57, 19.14 5.96, 19.68 7.97 C20.22 9.99, 20.35 12.43, 19.3 14.29 C18.26 16.16, 15.46 18.26, 13.41 19.14 C11.37 20.03, 8.97 20.18, 7.03 19.59 C5.1 18.99, 3.04 17.37, 1.81 15.59 C0.59 13.81, -0.49 11, -0.31 8.9 C-0.13 6.79, 1.15 4.39, 2.9 2.93 C4.66 1.48, 9 0.53, 10.21 0.15 C11.43 -0.23, 10.3 0.52, 10.21 0.65 M8.01 0.01 C10.11 -0.31, 13.96 0.97, 15.82 2.1 C17.67 3.23, 18.46 4.87, 19.13 6.79 C19.8 8.71, 20.67 11.67, 19.83 13.61 C18.99 15.55, 15.97 17.4, 14.1 18.41 C12.23 19.42, 10.5 19.92, 8.61 19.66 C6.72 19.4, 4.13 18.55, 2.76 16.85 C1.4 15.16, 0.48 11.61, 0.41 9.49 C0.33 7.37, 0.98 5.76, 2.3 4.13 C3.62 2.5, 7.36 0.35, 8.33 -0.28 C9.29 -0.9, 7.98 0.11, 8.08 0.39" stroke="#000000" stroke-width="1" fill="none"></path></g><g transform="translate(1673.0307540893555 236.6507263587273) rotate(0 126.7419662475586 70)"><text x="126.7419662475586" y="0" font-family="Virgil, Segoe UI Emoji" font-size="28px" fill="#1e1e1e" text-anchor="middle" style="white-space: pre;" direction="ltr" dominant-baseline="text-before-edge">Usuário recebe</text><text x="126.7419662475586" y="35" font-family="Virgil, Segoe UI Emoji" font-size="28px" fill="#1e1e1e" text-anchor="middle" style="white-space: pre;" direction="ltr" dominant-baseline="text-before-edge">a correção do bug</text><text x="126.7419662475586" y="70" font-family="Virgil, Segoe UI Emoji" font-size="28px" fill="#1e1e1e" text-anchor="middle" style="white-space: pre;" direction="ltr" dominant-baseline="text-before-edge">ou feature sem</text><text x="126.7419662475586" y="105" font-family="Virgil, Segoe UI Emoji" font-size="28px" fill="#1e1e1e" text-anchor="middle" style="white-space: pre;" direction="ltr" dominant-baseline="text-before-edge">passar pela loja</text></g></svg>